<svg width="32" height="28" viewBox="0 0 32 28" fill="none" xmlns="http://www.w3.org/2000/svg">
<path fill-rule="evenodd" clip-rule="evenodd" d="M15.9997 14C15.204 14 14.441 14.3161 13.8784 14.8787C13.3157 15.4413 12.9997 16.2044 12.9997 17C12.9997 17.7957 13.3157 18.5587 13.8784 19.1213C14.441 19.6839 15.204 20 15.9997 20C16.7953 20 17.5584 19.6839 18.121 19.1213C18.6836 18.5587 18.9997 17.7957 18.9997 17C18.9997 16.2044 18.6836 15.4413 18.121 14.8787C17.5584 14.3161 16.7953 14 15.9997 14ZM14.9997 17C14.9997 16.7348 15.105 16.4804 15.2926 16.2929C15.4801 16.1054 15.7345 16 15.9997 16C16.2649 16 16.5192 16.1054 16.7068 16.2929C16.8943 16.4804 16.9997 16.7348 16.9997 17C16.9997 17.2652 16.8943 17.5196 16.7068 17.7071C16.5192 17.8946 16.2649 18 15.9997 18C15.7345 18 15.4801 17.8946 15.2926 17.7071C15.105 17.5196 14.9997 17.2652 14.9997 17Z" fill="#253238"/>
<path fill-rule="evenodd" clip-rule="evenodd" d="M16.0017 1.46713e-06C16.1769 0.000356512 16.3489 0.0467313 16.5005 0.134482C16.6522 0.222233 16.7781 0.348279 16.8657 0.500001L31.8657 26.5C31.9534 26.652 31.9996 26.8245 31.9997 27C31.9997 27.1755 31.9534 27.348 31.8657 27.5C31.7779 27.652 31.6517 27.7782 31.4997 27.866C31.3477 27.9538 31.1752 28 30.9997 28H0.999678C0.824559 27.9999 0.652526 27.9539 0.50079 27.8665C0.349053 27.7791 0.222933 27.6533 0.135049 27.5019C0.0471646 27.3504 0.000597405 27.1785 5.70984e-06 27.0034C-0.000585986 26.8283 0.0448189 26.6561 0.131678 26.504L7.63568 13.384L15.1357 0.497001C15.2238 0.345544 15.3502 0.21991 15.5022 0.132683C15.6542 0.0454568 15.8264 -0.000298672 16.0017 1.46713e-06ZM2.72368 26L6.82368 18.832C7.28868 20.116 8.22368 21.22 9.41268 22.06C11.1387 23.278 13.4697 24 15.9997 24C18.5297 24 20.8607 23.278 22.5867 22.06C23.7617 21.23 24.6877 20.142 25.1587 18.878L29.2697 26H2.72268H2.72368ZM15.9957 2.995L20.5177 10.833C19.1647 10.296 17.6227 10 15.9997 10C14.3517 10 12.7877 10.306 11.4197 10.857L15.9957 2.995ZM10.5657 13.575C9.21268 14.529 8.49968 15.755 8.49968 17C8.49968 18.245 9.21268 19.47 10.5657 20.426C11.9157 21.379 13.8347 22 15.9997 22C18.1647 22 20.0827 21.379 21.4337 20.426C22.7867 19.47 23.4997 18.245 23.4997 17C23.4997 15.755 22.7867 14.53 21.4337 13.574C20.0837 12.621 18.1647 12 15.9997 12C13.8347 12 11.9167 12.621 10.5657 13.574V13.575Z" fill="#253238"/>
<path d="M25.9997 9.01C25.7371 9.01 25.4853 9.11431 25.2996 9.29997C25.114 9.48563 25.0097 9.73744 25.0097 10C25.0097 10.2626 25.114 10.5144 25.2996 10.7C25.4853 10.8857 25.7371 10.99 25.9997 10.99H30.9997C31.2622 10.99 31.5141 10.8857 31.6997 10.7C31.8854 10.5144 31.9897 10.2626 31.9897 10C31.9897 9.73744 31.8854 9.48563 31.6997 9.29997C31.5141 9.11431 31.2622 9.01 30.9997 9.01H25.9997ZM29.7917 0.406002C29.9492 0.616053 30.0169 0.880083 29.9797 1.14001C29.9426 1.39993 29.8037 1.63446 29.5937 1.792L25.5937 4.792C25.3836 4.94954 25.1196 5.01718 24.8597 4.98005C24.5997 4.94292 24.3652 4.80405 24.2077 4.594C24.0501 4.38395 23.9825 4.11992 24.0196 3.85999C24.0568 3.60007 24.1956 3.36554 24.4057 3.208L28.4057 0.208002C28.6157 0.0504631 28.8798 -0.0171808 29.1397 0.0199514C29.3996 0.0570836 29.6341 0.19595 29.7917 0.406002ZM0.999678 9.01C0.737113 9.01 0.485303 9.11431 0.299642 9.29997C0.113981 9.48563 0.00967789 9.73744 0.00967789 10C0.00967789 10.2626 0.113981 10.5144 0.299642 10.7C0.485303 10.8857 0.737113 10.99 0.999678 10.99H5.99968C6.26224 10.99 6.51405 10.8857 6.69971 10.7C6.88537 10.5144 6.98968 10.2626 6.98968 10C6.98968 9.73744 6.88537 9.48563 6.69971 9.29997C6.51405 9.11431 6.26224 9.01 5.99968 9.01H0.999678ZM3.20768 0.406002C3.36522 0.19595 3.59975 0.0570836 3.85967 0.0199514C4.1196 -0.0171808 4.38363 0.0504631 4.59368 0.208002L8.59368 3.208C8.80373 3.36554 8.94259 3.60007 8.97973 3.85999C9.01686 4.11992 8.94922 4.38395 8.79168 4.594C8.63414 4.80405 8.39961 4.94292 8.13968 4.98005C7.87976 5.01718 7.61573 4.94954 7.40568 4.792L3.40568 1.792C3.19563 1.63446 3.05676 1.39993 3.01963 1.14001C2.9825 0.880083 3.05014 0.616053 3.20768 0.406002Z" fill="#253238"/>
</svg>
