<svg width="24" height="24" viewBox="0 0 24 24" fill="none" xmlns="http://www.w3.org/2000/svg">
<mask id="mask0_0_54" style="mask-type:alpha" maskUnits="userSpaceOnUse" x="0" y="0" width="24" height="24">
<path d="M2.5 12C2.5 6.7533 6.7533 2.5 12 2.5C17.2467 2.5 21.5 6.7533 21.5 12C21.5 17.2467 17.2467 21.5 12 21.5C6.7533 21.5 2.5 17.2467 2.5 12Z" stroke="#09ADEA" stroke-width="5"/>
</mask>
<g mask="url(#mask0_0_54)">
<path d="M0 16L12.6667 14L24 15.3333L24 20L12 22.6667L0 20V16Z" fill="#F5A61D"/>
<path d="M5.06272e-07 4C5.06272e-07 4 6.66669 5.33345 11.3334 3.33339C16 1.33333 24 4 24 4V8C24 8 16.6667 10.0001 12 8C7.33333 5.99992 6 9.33342 5.06272e-07 8C-6.32839e-07 6.66675 5.06272e-07 4 5.06272e-07 4Z" fill="#8F3A98"/>
<path d="M2.09311e-07 8C9.33333 5.33336 24 8 24 8V12C24 12 16.6667 14 12 12C7.33333 9.99996 2.09311e-07 12 2.09311e-07 12C2.09311e-07 12 -2.61639e-07 9.33327 2.09311e-07 8Z" fill="#E6359F"/>
<path d="M0 12C0.982554 9.70739 10.2308 7.10674 12.4488 10.22C14.6667 13.3333 24 12 24 12C24 12 24 14.6666 24 16C15.9793 14.2176 10 13.9999 7.6866 15.412C5.37318 16.8241 3.10801 16 0 16C0 16 2.03451e-05 13.3333 0 12Z" fill="#F15E2B"/>
<path d="M0 20C1.48959 15.283 10 22 12.6667 20C15.3334 18 24 20 24 20V24H0C0 24 1.99388e-05 21.3333 0 20Z" fill="#FFDC5F"/>
<path d="M0 0H24V4C24 4 12.6667 3.33333 9.33333 4.66667C6 6 0 4 0 4V0Z" fill="#09ADEA"/>
<path fill-rule="evenodd" clip-rule="evenodd" d="M12 0H0V12V24H12H24V12V0H12ZM12 0C18.6274 0 24 5.37258 24 12C24 18.6274 18.6274 24 12 24C5.37258 24 0 18.6274 0 12C0 5.37258 5.37258 0 12 0Z" fill="#C4C4C4"/>
</g>
</svg>
